<svg width="281" height="53" viewBox="0 0 281 53" fill="none" xmlns="http://www.w3.org/2000/svg">
<path d="M60.4091 68.68C59.0757 69.32 57.6891 69.96 56.2491 70.6C54.8624 71.1867 53.3691 71.72 51.7691 72.2C50.1691 72.6267 48.4091 72.9733 46.4891 73.24C44.6224 73.5067 42.5691 73.64 40.3291 73.64C33.1824 73.64 27.6624 72.04 23.7691 68.84C19.9291 65.64 18.0091 60.3067 18.0091 52.84C18.0091 48.52 18.6757 44.4667 20.0091 40.68C21.3424 36.84 23.3157 33.5067 25.9291 30.68C28.5424 27.8 31.7691 25.5333 35.6091 23.88C39.4491 22.2267 43.8491 21.4 48.8091 21.4C51.1557 21.4 53.2891 21.56 55.2091 21.88C57.1824 22.2 58.9424 22.6267 60.4891 23.16C62.0891 23.64 63.5024 24.1733 64.7291 24.76C66.0091 25.3467 67.1557 25.9067 68.1691 26.44L65.2891 41.32H50.8891C50.9424 40.7867 50.9957 40.0933 51.0491 39.24C51.1557 38.3867 51.2357 37.5333 51.2891 36.68C51.3424 35.7733 51.3957 34.8933 51.4491 34.04C51.5024 33.1867 51.5291 32.4667 51.5291 31.88C51.5291 31.4533 51.5024 30.9733 51.4491 30.44C51.3957 29.8533 51.2624 29.2933 51.0491 28.76C50.8357 28.2267 50.4891 27.8 50.0091 27.48C49.5824 27.1067 48.9957 26.92 48.2491 26.92C46.8624 26.92 45.5824 27.5067 44.4091 28.68C43.2891 29.8 42.2757 31.32 41.3691 33.24C40.4624 35.1067 39.6624 37.24 38.9691 39.64C38.2757 42.04 37.6891 44.4933 37.2091 47C36.7824 49.4533 36.4357 51.88 36.1691 54.28C35.9557 56.68 35.8491 58.7867 35.8491 60.6C35.8491 61.1333 35.8757 61.8 35.9291 62.6C35.9824 63.4 36.1424 64.1733 36.4091 64.92C36.6757 65.6667 37.0757 66.3067 37.6091 66.84C38.1957 67.3733 38.9691 67.64 39.9291 67.64C41.5824 67.64 43.1824 66.6267 44.7291 64.6C46.2757 62.52 47.6357 58.84 48.8091 53.56H63.6091L60.4091 68.68ZM116.223 34.28C116.223 37.4267 115.343 40.3333 113.583 43C111.823 45.6667 108.916 47.6933 104.863 49.08L114.143 73H96.3028L89.2628 50.84H88.3828L83.6628 73H66.3828L77.1828 22.2H98.2228C100.676 22.2 102.996 22.36 105.183 22.68C107.369 22.9467 109.263 23.5333 110.863 24.44C112.516 25.2933 113.823 26.52 114.783 28.12C115.743 29.6667 116.223 31.72 116.223 34.28ZM93.1828 45.72C94.5695 45.72 95.7428 45.2667 96.7028 44.36C97.7161 43.4 98.5161 42.2533 99.1028 40.92C99.7428 39.5867 100.196 38.1733 100.463 36.68C100.729 35.1333 100.863 33.8 100.863 32.68C100.863 31.2933 100.623 30.12 100.143 29.16C99.6628 28.1467 98.6228 27.64 97.0228 27.64H93.4228L89.4228 45.72H93.1828ZM145.003 53.8L140.923 73H123.563L127.963 52.44L120.123 22.2H139.323L144.763 42.28L156.763 22.2H165.403L145.003 53.8ZM185.188 51.08C186.788 51.08 188.121 50.4133 189.188 49.08C190.308 47.7467 191.214 46.12 191.908 44.2C192.654 42.28 193.188 40.28 193.508 38.2C193.828 36.12 193.988 34.3067 193.988 32.76C193.988 31.32 193.748 30.12 193.268 29.16C192.788 28.1467 191.748 27.64 190.148 27.64H186.548L181.508 51.08H185.188ZM180.388 56.2L176.788 73H159.508L170.308 22.2H188.788C191.828 22.2 194.601 22.36 197.108 22.68C199.614 23 201.774 23.64 203.588 24.6C205.401 25.56 206.814 26.9467 207.828 28.76C208.841 30.52 209.348 32.8933 209.348 35.88C209.348 38.6533 208.894 41.2933 207.988 43.8C207.134 46.2533 205.721 48.4133 203.748 50.28C201.828 52.0933 199.321 53.5333 196.228 54.6C193.134 55.6667 189.374 56.2 184.948 56.2H180.388ZM255.493 28.28H242.613L233.093 73H215.813L225.333 28.28H212.613L214.053 22.2H256.853L255.493 28.28ZM282.278 36.92C282.438 36.12 282.518 35.0267 282.518 33.64C282.518 32.84 282.464 32.0667 282.358 31.32C282.251 30.52 282.064 29.8267 281.798 29.24C281.531 28.6 281.131 28.12 280.598 27.8C280.064 27.4267 279.371 27.24 278.518 27.24C277.558 27.24 276.678 27.4533 275.878 27.88C275.078 28.3067 274.358 28.8667 273.718 29.56C273.131 30.2 272.651 30.9733 272.278 31.88C271.958 32.7333 271.798 33.64 271.798 34.6C271.798 35.9867 272.144 37.0533 272.838 37.8C273.584 38.5467 274.544 39.16 275.718 39.64C276.891 40.12 278.224 40.52 279.718 40.84C281.211 41.16 282.758 41.5333 284.358 41.96C285.691 42.3333 287.024 42.8133 288.358 43.4C289.691 43.9867 290.864 44.7867 291.878 45.8C292.944 46.76 293.798 48.04 294.438 49.64C295.078 51.1867 295.398 53.1333 295.398 55.48C295.398 58.84 294.731 61.6667 293.398 63.96C292.064 66.2533 290.224 68.12 287.878 69.56C285.531 71 282.731 72.04 279.478 72.68C276.278 73.32 272.784 73.64 268.998 73.64C265.158 73.64 262.011 73.4 259.558 72.92C257.158 72.3867 255.264 71.8267 253.878 71.24C252.224 70.5467 250.998 69.7467 250.198 68.84L252.918 57.88H266.998C266.944 58.36 266.891 59.0267 266.838 59.88C266.784 60.68 266.758 61.32 266.758 61.8C266.758 62.44 266.838 63.1067 266.998 63.8C267.158 64.4933 267.398 65.1333 267.718 65.72C268.091 66.3067 268.598 66.7867 269.238 67.16C269.878 67.5333 270.678 67.72 271.638 67.72C272.704 67.72 273.638 67.48 274.438 67C275.291 66.52 275.984 65.9333 276.518 65.24C277.104 64.4933 277.531 63.6933 277.798 62.84C278.118 61.9333 278.278 61.0533 278.278 60.2C278.278 59.0267 277.984 58.04 277.398 57.24C276.864 56.44 276.118 55.7733 275.158 55.24C274.198 54.6533 273.078 54.1733 271.798 53.8C270.571 53.3733 269.291 52.9467 267.958 52.52C266.678 52.1467 265.318 51.6933 263.878 51.16C262.491 50.6267 261.211 49.88 260.038 48.92C258.864 47.96 257.878 46.76 257.078 45.32C256.331 43.8267 255.958 41.9333 255.958 39.64C255.958 36.2267 256.811 33.3733 258.518 31.08C260.278 28.7333 262.464 26.84 265.078 25.4C267.744 23.96 270.651 22.9467 273.798 22.36C276.944 21.72 279.931 21.4 282.758 21.4C286.491 21.4 289.691 21.8533 292.358 22.76C295.078 23.6133 297.131 24.6267 298.518 25.8L295.558 36.92H282.278Z" transform="translate(-18 -21)" fill="#2DC06B"/>
</svg>
